<?xml version="1.0" encoding="UTF-8"?>
<svg width="150px" height="150px" viewBox="0 0 150 150" version="1.1" xmlns="http://www.w3.org/2000/svg" xmlns:xlink="http://www.w3.org/1999/xlink">
    <!-- Generator: Sketch 58 (84663) - https://sketch.com -->
    <title>BG_Element</title>
    <desc>Created with Sketch.</desc>
    <g id="Page-1" stroke="none" stroke-width="1" fill="none" fill-rule="evenodd">
        <path d="M2.61627907,144.767442 C4.0612101,144.767442 5.23255814,145.93879 5.23255814,147.383721 C5.23255814,148.828652 4.0612101,150 2.61627907,150 C1.17134804,150 0,148.828652 0,147.383721 C0,145.93879 1.17134804,144.767442 2.61627907,144.767442 Z M18.3139535,144.767442 C19.7588845,144.767442 20.9302326,145.93879 20.9302326,147.383721 C20.9302326,148.828652 19.7588845,150 18.3139535,150 C16.8690225,150 15.6976744,148.828652 15.6976744,147.383721 C15.6976744,145.93879 16.8690225,144.767442 18.3139535,144.767442 Z M35.755814,144.767442 C37.200745,144.767442 38.372093,145.93879 38.372093,147.383721 C38.372093,148.828652 37.200745,150 35.755814,150 C34.3108829,150 33.1395349,148.828652 33.1395349,147.383721 C33.1395349,145.93879 34.3108829,144.767442 35.755814,144.767442 Z M51.4534884,144.767442 C52.8984194,144.767442 54.0697674,145.93879 54.0697674,147.383721 C54.0697674,148.828652 52.8984194,150 51.4534884,150 C50.0085573,150 48.8372093,148.828652 48.8372093,147.383721 C48.8372093,145.93879 50.0085573,144.767442 51.4534884,144.767442 Z M67.1511628,144.767442 C68.5960938,144.767442 69.7674419,145.93879 69.7674419,147.383721 C69.7674419,148.828652 68.5960938,150 67.1511628,150 C65.7062318,150 64.5348837,148.828652 64.5348837,147.383721 C64.5348837,145.93879 65.7062318,144.767442 67.1511628,144.767442 Z M82.8488372,144.767442 C84.2937682,144.767442 85.4651163,145.93879 85.4651163,147.383721 C85.4651163,148.828652 84.2937682,150 82.8488372,150 C81.4039062,150 80.2325581,148.828652 80.2325581,147.383721 C80.2325581,145.93879 81.4039062,144.767442 82.8488372,144.767442 Z M98.5465116,144.767442 C99.9914427,144.767442 101.162791,145.93879 101.162791,147.383721 C101.162791,148.828652 99.9914427,150 98.5465116,150 C97.1015806,150 95.9302326,148.828652 95.9302326,147.383721 C95.9302326,145.93879 97.1015806,144.767442 98.5465116,144.767442 Z M114.244186,144.767442 C115.689117,144.767442 116.860465,145.93879 116.860465,147.383721 C116.860465,148.828652 115.689117,150 114.244186,150 C112.799255,150 111.627907,148.828652 111.627907,147.383721 C111.627907,145.93879 112.799255,144.767442 114.244186,144.767442 Z M131.686047,144.767442 C133.130978,144.767442 134.302326,145.93879 134.302326,147.383721 C134.302326,148.828652 133.130978,150 131.686047,150 C130.241115,150 129.069767,148.828652 129.069767,147.383721 C129.069767,145.93879 130.241115,144.767442 131.686047,144.767442 Z M147.383721,144.767442 C148.828652,144.767442 150,145.93879 150,147.383721 C150,148.828652 148.828652,150 147.383721,150 C145.93879,150 144.767442,148.828652 144.767442,147.383721 C144.767442,145.93879 145.93879,144.767442 147.383721,144.767442 Z M2.61627907,129.069767 C4.0612101,129.069767 5.23255814,130.241115 5.23255814,131.686047 C5.23255814,133.130978 4.0612101,134.302326 2.61627907,134.302326 C1.17134804,134.302326 0,133.130978 0,131.686047 C0,130.241115 1.17134804,129.069767 2.61627907,129.069767 Z M18.3139535,129.069767 C19.7588845,129.069767 20.9302326,130.241115 20.9302326,131.686047 C20.9302326,133.130978 19.7588845,134.302326 18.3139535,134.302326 C16.8690225,134.302326 15.6976744,133.130978 15.6976744,131.686047 C15.6976744,130.241115 16.8690225,129.069767 18.3139535,129.069767 Z M35.755814,129.069767 C37.200745,129.069767 38.372093,130.241115 38.372093,131.686047 C38.372093,133.130978 37.200745,134.302326 35.755814,134.302326 C34.3108829,134.302326 33.1395349,133.130978 33.1395349,131.686047 C33.1395349,130.241115 34.3108829,129.069767 35.755814,129.069767 Z M51.4534884,129.069767 C52.8984194,129.069767 54.0697674,130.241115 54.0697674,131.686047 C54.0697674,133.130978 52.8984194,134.302326 51.4534884,134.302326 C50.0085573,134.302326 48.8372093,133.130978 48.8372093,131.686047 C48.8372093,130.241115 50.0085573,129.069767 51.4534884,129.069767 Z M67.1511628,129.069767 C68.5960938,129.069767 69.7674419,130.241115 69.7674419,131.686047 C69.7674419,133.130978 68.5960938,134.302326 67.1511628,134.302326 C65.7062318,134.302326 64.5348837,133.130978 64.5348837,131.686047 C64.5348837,130.241115 65.7062318,129.069767 67.1511628,129.069767 Z M82.8488372,129.069767 C84.2937682,129.069767 85.4651163,130.241115 85.4651163,131.686047 C85.4651163,133.130978 84.2937682,134.302326 82.8488372,134.302326 C81.4039062,134.302326 80.2325581,133.130978 80.2325581,131.686047 C80.2325581,130.241115 81.4039062,129.069767 82.8488372,129.069767 Z M98.5465116,129.069767 C99.9914427,129.069767 101.162791,130.241115 101.162791,131.686047 C101.162791,133.130978 99.9914427,134.302326 98.5465116,134.302326 C97.1015806,134.302326 95.9302326,133.130978 95.9302326,131.686047 C95.9302326,130.241115 97.1015806,129.069767 98.5465116,129.069767 Z M114.244186,129.069767 C115.689117,129.069767 116.860465,130.241115 116.860465,131.686047 C116.860465,133.130978 115.689117,134.302326 114.244186,134.302326 C112.799255,134.302326 111.627907,133.130978 111.627907,131.686047 C111.627907,130.241115 112.799255,129.069767 114.244186,129.069767 Z M131.686047,129.069767 C133.130978,129.069767 134.302326,130.241115 134.302326,131.686047 C134.302326,133.130978 133.130978,134.302326 131.686047,134.302326 C130.241115,134.302326 129.069767,133.130978 129.069767,131.686047 C129.069767,130.241115 130.241115,129.069767 131.686047,129.069767 Z M147.383721,129.069767 C148.828652,129.069767 150,130.241115 150,131.686047 C150,133.130978 148.828652,134.302326 147.383721,134.302326 C145.93879,134.302326 144.767442,133.130978 144.767442,131.686047 C144.767442,130.241115 145.93879,129.069767 147.383721,129.069767 Z M2.61627907,111.627907 C4.0612101,111.627907 5.23255814,112.799255 5.23255814,114.244186 C5.23255814,115.689117 4.0612101,116.860465 2.61627907,116.860465 C1.17134804,116.860465 0,115.689117 0,114.244186 C0,112.799255 1.17134804,111.627907 2.61627907,111.627907 Z M18.3139535,111.627907 C19.7588845,111.627907 20.9302326,112.799255 20.9302326,114.244186 C20.9302326,115.689117 19.7588845,116.860465 18.3139535,116.860465 C16.8690225,116.860465 15.6976744,115.689117 15.6976744,114.244186 C15.6976744,112.799255 16.8690225,111.627907 18.3139535,111.627907 Z M35.755814,111.627907 C37.200745,111.627907 38.372093,112.799255 38.372093,114.244186 C38.372093,115.689117 37.200745,116.860465 35.755814,116.860465 C34.3108829,116.860465 33.1395349,115.689117 33.1395349,114.244186 C33.1395349,112.799255 34.3108829,111.627907 35.755814,111.627907 Z M51.4534884,111.627907 C52.8984194,111.627907 54.0697674,112.799255 54.0697674,114.244186 C54.0697674,115.689117 52.8984194,116.860465 51.4534884,116.860465 C50.0085573,116.860465 48.8372093,115.689117 48.8372093,114.244186 C48.8372093,112.799255 50.0085573,111.627907 51.4534884,111.627907 Z M67.1511628,111.627907 C68.5960938,111.627907 69.7674419,112.799255 69.7674419,114.244186 C69.7674419,115.689117 68.5960938,116.860465 67.1511628,116.860465 C65.7062318,116.860465 64.5348837,115.689117 64.5348837,114.244186 C64.5348837,112.799255 65.7062318,111.627907 67.1511628,111.627907 Z M82.8488372,111.627907 C84.2937682,111.627907 85.4651163,112.799255 85.4651163,114.244186 C85.4651163,115.689117 84.2937682,116.860465 82.8488372,116.860465 C81.4039062,116.860465 80.2325581,115.689117 80.2325581,114.244186 C80.2325581,112.799255 81.4039062,111.627907 82.8488372,111.627907 Z M98.5465116,111.627907 C99.9914427,111.627907 101.162791,112.799255 101.162791,114.244186 C101.162791,115.689117 99.9914427,116.860465 98.5465116,116.860465 C97.1015806,116.860465 95.9302326,115.689117 95.9302326,114.244186 C95.9302326,112.799255 97.1015806,111.627907 98.5465116,111.627907 Z M114.244186,111.627907 C115.689117,111.627907 116.860465,112.799255 116.860465,114.244186 C116.860465,115.689117 115.689117,116.860465 114.244186,116.860465 C112.799255,116.860465 111.627907,115.689117 111.627907,114.244186 C111.627907,112.799255 112.799255,111.627907 114.244186,111.627907 Z M131.686047,111.627907 C133.130978,111.627907 134.302326,112.799255 134.302326,114.244186 C134.302326,115.689117 133.130978,116.860465 131.686047,116.860465 C130.241115,116.860465 129.069767,115.689117 129.069767,114.244186 C129.069767,112.799255 130.241115,111.627907 131.686047,111.627907 Z M147.383721,111.627907 C148.828652,111.627907 150,112.799255 150,114.244186 C150,115.689117 148.828652,116.860465 147.383721,116.860465 C145.93879,116.860465 144.767442,115.689117 144.767442,114.244186 C144.767442,112.799255 145.93879,111.627907 147.383721,111.627907 Z M2.61627907,95.9302326 C4.0612101,95.9302326 5.23255814,97.1015806 5.23255814,98.5465116 C5.23255814,99.9914427 4.0612101,101.162791 2.61627907,101.162791 C1.17134804,101.162791 0,99.9914427 0,98.5465116 C0,97.1015806 1.17134804,95.9302326 2.61627907,95.9302326 Z M35.755814,95.9302326 C37.200745,95.9302326 38.372093,97.1015806 38.372093,98.5465116 C38.372093,99.9914427 37.200745,101.162791 35.755814,101.162791 C34.3108829,101.162791 33.1395349,99.9914427 33.1395349,98.5465116 C33.1395349,97.1015806 34.3108829,95.9302326 35.755814,95.9302326 Z M51.4534884,95.9302326 C52.8984194,95.9302326 54.0697674,97.1015806 54.0697674,98.5465116 C54.0697674,99.9914427 52.8984194,101.162791 51.4534884,101.162791 C50.0085573,101.162791 48.8372093,99.9914427 48.8372093,98.5465116 C48.8372093,97.1015806 50.0085573,95.9302326 51.4534884,95.9302326 Z M67.1511628,95.9302326 C68.5960938,95.9302326 69.7674419,97.1015806 69.7674419,98.5465116 C69.7674419,99.9914427 68.5960938,101.162791 67.1511628,101.162791 C65.7062318,101.162791 64.5348837,99.9914427 64.5348837,98.5465116 C64.5348837,97.1015806 65.7062318,95.9302326 67.1511628,95.9302326 Z M82.8488372,95.9302326 C84.2937682,95.9302326 85.4651163,97.1015806 85.4651163,98.5465116 C85.4651163,99.9914427 84.2937682,101.162791 82.8488372,101.162791 C81.4039062,101.162791 80.2325581,99.9914427 80.2325581,98.5465116 C80.2325581,97.1015806 81.4039062,95.9302326 82.8488372,95.9302326 Z M98.5465116,95.9302326 C99.9914427,95.9302326 101.162791,97.1015806 101.162791,98.5465116 C101.162791,99.9914427 99.9914427,101.162791 98.5465116,101.162791 C97.1015806,101.162791 95.9302326,99.9914427 95.9302326,98.5465116 C95.9302326,97.1015806 97.1015806,95.9302326 98.5465116,95.9302326 Z M114.244186,95.9302326 C115.689117,95.9302326 116.860465,97.1015806 116.860465,98.5465116 C116.860465,99.9914427 115.689117,101.162791 114.244186,101.162791 C112.799255,101.162791 111.627907,99.9914427 111.627907,98.5465116 C111.627907,97.1015806 112.799255,95.9302326 114.244186,95.9302326 Z M131.686047,95.9302326 C133.130978,95.9302326 134.302326,97.1015806 134.302326,98.5465116 C134.302326,99.9914427 133.130978,101.162791 131.686047,101.162791 C130.241115,101.162791 129.069767,99.9914427 129.069767,98.5465116 C129.069767,97.1015806 130.241115,95.9302326 131.686047,95.9302326 Z M147.383721,95.9302326 C148.828652,95.9302326 150,97.1015806 150,98.5465116 C150,99.9914427 148.828652,101.162791 147.383721,101.162791 C145.93879,101.162791 144.767442,99.9914427 144.767442,98.5465116 C144.767442,97.1015806 145.93879,95.9302326 147.383721,95.9302326 Z M18.3139535,95.9302326 C19.7588845,95.9302326 20.9302326,97.1015806 20.9302326,98.5465116 C20.9302326,99.9914427 19.7588845,101.162791 18.3139535,101.162791 C16.8690225,101.162791 15.6976744,99.9914427 15.6976744,98.5465116 C15.6976744,97.1015806 16.8690225,95.9302326 18.3139535,95.9302326 Z M2.61627907,80.2325581 C4.0612101,80.2325581 5.23255814,81.4039062 5.23255814,82.8488372 C5.23255814,84.2937682 4.0612101,85.4651163 2.61627907,85.4651163 C1.17134804,85.4651163 0,84.2937682 0,82.8488372 C0,81.4039062 1.17134804,80.2325581 2.61627907,80.2325581 Z M18.3139535,80.2325581 C19.7588845,80.2325581 20.9302326,81.4039062 20.9302326,82.8488372 C20.9302326,84.2937682 19.7588845,85.4651163 18.3139535,85.4651163 C16.8690225,85.4651163 15.6976744,84.2937682 15.6976744,82.8488372 C15.6976744,81.4039062 16.8690225,80.2325581 18.3139535,80.2325581 Z M35.755814,80.2325581 C37.200745,80.2325581 38.372093,81.4039062 38.372093,82.8488372 C38.372093,84.2937682 37.200745,85.4651163 35.755814,85.4651163 C34.3108829,85.4651163 33.1395349,84.2937682 33.1395349,82.8488372 C33.1395349,81.4039062 34.3108829,80.2325581 35.755814,80.2325581 Z M51.4534884,80.2325581 C52.8984194,80.2325581 54.0697674,81.4039062 54.0697674,82.8488372 C54.0697674,84.2937682 52.8984194,85.4651163 51.4534884,85.4651163 C50.0085573,85.4651163 48.8372093,84.2937682 48.8372093,82.8488372 C48.8372093,81.4039062 50.0085573,80.2325581 51.4534884,80.2325581 Z M67.1511628,80.2325581 C68.5960938,80.2325581 69.7674419,81.4039062 69.7674419,82.8488372 C69.7674419,84.2937682 68.5960938,85.4651163 67.1511628,85.4651163 C65.7062318,85.4651163 64.5348837,84.2937682 64.5348837,82.8488372 C64.5348837,81.4039062 65.7062318,80.2325581 67.1511628,80.2325581 Z M82.8488372,80.2325581 C84.2937682,80.2325581 85.4651163,81.4039062 85.4651163,82.8488372 C85.4651163,84.2937682 84.2937682,85.4651163 82.8488372,85.4651163 C81.4039062,85.4651163 80.2325581,84.2937682 80.2325581,82.8488372 C80.2325581,81.4039062 81.4039062,80.2325581 82.8488372,80.2325581 Z M98.5465116,80.2325581 C99.9914427,80.2325581 101.162791,81.4039062 101.162791,82.8488372 C101.162791,84.2937682 99.9914427,85.4651163 98.5465116,85.4651163 C97.1015806,85.4651163 95.9302326,84.2937682 95.9302326,82.8488372 C95.9302326,81.4039062 97.1015806,80.2325581 98.5465116,80.2325581 Z M114.244186,80.2325581 C115.689117,80.2325581 116.860465,81.4039062 116.860465,82.8488372 C116.860465,84.2937682 115.689117,85.4651163 114.244186,85.4651163 C112.799255,85.4651163 111.627907,84.2937682 111.627907,82.8488372 C111.627907,81.4039062 112.799255,80.2325581 114.244186,80.2325581 Z M131.686047,80.2325581 C133.130978,80.2325581 134.302326,81.4039062 134.302326,82.8488372 C134.302326,84.2937682 133.130978,85.4651163 131.686047,85.4651163 C130.241115,85.4651163 129.069767,84.2937682 129.069767,82.8488372 C129.069767,81.4039062 130.241115,80.2325581 131.686047,80.2325581 Z M147.383721,80.2325581 C148.828652,80.2325581 150,81.4039062 150,82.8488372 C150,84.2937682 148.828652,85.4651163 147.383721,85.4651163 C145.93879,85.4651163 144.767442,84.2937682 144.767442,82.8488372 C144.767442,81.4039062 145.93879,80.2325581 147.383721,80.2325581 Z M35.755814,64.5348837 C37.200745,64.5348837 38.372093,65.7062318 38.372093,67.1511628 C38.372093,68.5960938 37.200745,69.7674419 35.755814,69.7674419 C34.3108829,69.7674419 33.1395349,68.5960938 33.1395349,67.1511628 C33.1395349,65.7062318 34.3108829,64.5348837 35.755814,64.5348837 Z M51.4534884,64.5348837 C52.8984194,64.5348837 54.0697674,65.7062318 54.0697674,67.1511628 C54.0697674,68.5960938 52.8984194,69.7674419 51.4534884,69.7674419 C50.0085573,69.7674419 48.8372093,68.5960938 48.8372093,67.1511628 C48.8372093,65.7062318 50.0085573,64.5348837 51.4534884,64.5348837 Z M2.61627907,64.5348837 C4.0612101,64.5348837 5.23255814,65.7062318 5.23255814,67.1511628 C5.23255814,68.5960938 4.0612101,69.7674419 2.61627907,69.7674419 C1.17134804,69.7674419 0,68.5960938 0,67.1511628 C0,65.7062318 1.17134804,64.5348837 2.61627907,64.5348837 Z M18.3139535,64.5348837 C19.7588845,64.5348837 20.9302326,65.7062318 20.9302326,67.1511628 C20.9302326,68.5960938 19.7588845,69.7674419 18.3139535,69.7674419 C16.8690225,69.7674419 15.6976744,68.5960938 15.6976744,67.1511628 C15.6976744,65.7062318 16.8690225,64.5348837 18.3139535,64.5348837 Z M67.1511628,64.5348837 C68.5960938,64.5348837 69.7674419,65.7062318 69.7674419,67.1511628 C69.7674419,68.5960938 68.5960938,69.7674419 67.1511628,69.7674419 C65.7062318,69.7674419 64.5348837,68.5960938 64.5348837,67.1511628 C64.5348837,65.7062318 65.7062318,64.5348837 67.1511628,64.5348837 Z M82.8488372,64.5348837 C84.2937682,64.5348837 85.4651163,65.7062318 85.4651163,67.1511628 C85.4651163,68.5960938 84.2937682,69.7674419 82.8488372,69.7674419 C81.4039062,69.7674419 80.2325581,68.5960938 80.2325581,67.1511628 C80.2325581,65.7062318 81.4039062,64.5348837 82.8488372,64.5348837 Z M131.686047,64.5348837 C133.130978,64.5348837 134.302326,65.7062318 134.302326,67.1511628 C134.302326,68.5960938 133.130978,69.7674419 131.686047,69.7674419 C130.241115,69.7674419 129.069767,68.5960938 129.069767,67.1511628 C129.069767,65.7062318 130.241115,64.5348837 131.686047,64.5348837 Z M147.383721,64.5348837 C148.828652,64.5348837 150,65.7062318 150,67.1511628 C150,68.5960938 148.828652,69.7674419 147.383721,69.7674419 C145.93879,69.7674419 144.767442,68.5960938 144.767442,67.1511628 C144.767442,65.7062318 145.93879,64.5348837 147.383721,64.5348837 Z M98.5465116,64.5348837 C99.9914427,64.5348837 101.162791,65.7062318 101.162791,67.1511628 C101.162791,68.5960938 99.9914427,69.7674419 98.5465116,69.7674419 C97.1015806,69.7674419 95.9302326,68.5960938 95.9302326,67.1511628 C95.9302326,65.7062318 97.1015806,64.5348837 98.5465116,64.5348837 Z M114.244186,64.5348837 C115.689117,64.5348837 116.860465,65.7062318 116.860465,67.1511628 C116.860465,68.5960938 115.689117,69.7674419 114.244186,69.7674419 C112.799255,69.7674419 111.627907,68.5960938 111.627907,67.1511628 C111.627907,65.7062318 112.799255,64.5348837 114.244186,64.5348837 Z M2.61627907,48.8372093 C4.0612101,48.8372093 5.23255814,50.0085573 5.23255814,51.4534884 C5.23255814,52.8984194 4.0612101,54.0697674 2.61627907,54.0697674 C1.17134804,54.0697674 0,52.8984194 0,51.4534884 C0,50.0085573 1.17134804,48.8372093 2.61627907,48.8372093 Z M51.4534884,48.8372093 C52.8984194,48.8372093 54.0697674,50.0085573 54.0697674,51.4534884 C54.0697674,52.8984194 52.8984194,54.0697674 51.4534884,54.0697674 C50.0085573,54.0697674 48.8372093,52.8984194 48.8372093,51.4534884 C48.8372093,50.0085573 50.0085573,48.8372093 51.4534884,48.8372093 Z M18.3139535,48.8372093 C19.7588845,48.8372093 20.9302326,50.0085573 20.9302326,51.4534884 C20.9302326,52.8984194 19.7588845,54.0697674 18.3139535,54.0697674 C16.8690225,54.0697674 15.6976744,52.8984194 15.6976744,51.4534884 C15.6976744,50.0085573 16.8690225,48.8372093 18.3139535,48.8372093 Z M67.1511628,48.8372093 C68.5960938,48.8372093 69.7674419,50.0085573 69.7674419,51.4534884 C69.7674419,52.8984194 68.5960938,54.0697674 67.1511628,54.0697674 C65.7062318,54.0697674 64.5348837,52.8984194 64.5348837,51.4534884 C64.5348837,50.0085573 65.7062318,48.8372093 67.1511628,48.8372093 Z M82.8488372,48.8372093 C84.2937682,48.8372093 85.4651163,50.0085573 85.4651163,51.4534884 C85.4651163,52.8984194 84.2937682,54.0697674 82.8488372,54.0697674 C81.4039062,54.0697674 80.2325581,52.8984194 80.2325581,51.4534884 C80.2325581,50.0085573 81.4039062,48.8372093 82.8488372,48.8372093 Z M131.686047,48.8372093 C133.130978,48.8372093 134.302326,50.0085573 134.302326,51.4534884 C134.302326,52.8984194 133.130978,54.0697674 131.686047,54.0697674 C130.241115,54.0697674 129.069767,52.8984194 129.069767,51.4534884 C129.069767,50.0085573 130.241115,48.8372093 131.686047,48.8372093 Z M147.383721,48.8372093 C148.828652,48.8372093 150,50.0085573 150,51.4534884 C150,52.8984194 148.828652,54.0697674 147.383721,54.0697674 C145.93879,54.0697674 144.767442,52.8984194 144.767442,51.4534884 C144.767442,50.0085573 145.93879,48.8372093 147.383721,48.8372093 Z M98.5465116,48.8372093 C99.9914427,48.8372093 101.162791,50.0085573 101.162791,51.4534884 C101.162791,52.8984194 99.9914427,54.0697674 98.5465116,54.0697674 C97.1015806,54.0697674 95.9302326,52.8984194 95.9302326,51.4534884 C95.9302326,50.0085573 97.1015806,48.8372093 98.5465116,48.8372093 Z M114.244186,48.8372093 C115.689117,48.8372093 116.860465,50.0085573 116.860465,51.4534884 C116.860465,52.8984194 115.689117,54.0697674 114.244186,54.0697674 C112.799255,54.0697674 111.627907,52.8984194 111.627907,51.4534884 C111.627907,50.0085573 112.799255,48.8372093 114.244186,48.8372093 Z M35.755814,48.8372093 C37.200745,48.8372093 38.372093,50.0085573 38.372093,51.4534884 C38.372093,52.8984194 37.200745,54.0697674 35.755814,54.0697674 C34.3108829,54.0697674 33.1395349,52.8984194 33.1395349,51.4534884 C33.1395349,50.0085573 34.3108829,48.8372093 35.755814,48.8372093 Z M2.61627907,33.1395349 C4.0612101,33.1395349 5.23255814,34.3108829 5.23255814,35.755814 C5.23255814,37.200745 4.0612101,38.372093 2.61627907,38.372093 C1.17134804,38.372093 0,37.200745 0,35.755814 C0,34.3108829 1.17134804,33.1395349 2.61627907,33.1395349 Z M51.4534884,33.1395349 C52.8984194,33.1395349 54.0697674,34.3108829 54.0697674,35.755814 C54.0697674,37.200745 52.8984194,38.372093 51.4534884,38.372093 C50.0085573,38.372093 48.8372093,37.200745 48.8372093,35.755814 C48.8372093,34.3108829 50.0085573,33.1395349 51.4534884,33.1395349 Z M18.3139535,33.1395349 C19.7588845,33.1395349 20.9302326,34.3108829 20.9302326,35.755814 C20.9302326,37.200745 19.7588845,38.372093 18.3139535,38.372093 C16.8690225,38.372093 15.6976744,37.200745 15.6976744,35.755814 C15.6976744,34.3108829 16.8690225,33.1395349 18.3139535,33.1395349 Z M67.1511628,33.1395349 C68.5960938,33.1395349 69.7674419,34.3108829 69.7674419,35.755814 C69.7674419,37.200745 68.5960938,38.372093 67.1511628,38.372093 C65.7062318,38.372093 64.5348837,37.200745 64.5348837,35.755814 C64.5348837,34.3108829 65.7062318,33.1395349 67.1511628,33.1395349 Z M82.8488372,33.1395349 C84.2937682,33.1395349 85.4651163,34.3108829 85.4651163,35.755814 C85.4651163,37.200745 84.2937682,38.372093 82.8488372,38.372093 C81.4039062,38.372093 80.2325581,37.200745 80.2325581,35.755814 C80.2325581,34.3108829 81.4039062,33.1395349 82.8488372,33.1395349 Z M131.686047,33.1395349 C133.130978,33.1395349 134.302326,34.3108829 134.302326,35.755814 C134.302326,37.200745 133.130978,38.372093 131.686047,38.372093 C130.241115,38.372093 129.069767,37.200745 129.069767,35.755814 C129.069767,34.3108829 130.241115,33.1395349 131.686047,33.1395349 Z M114.244186,33.1395349 C115.689117,33.1395349 116.860465,34.3108829 116.860465,35.755814 C116.860465,37.200745 115.689117,38.372093 114.244186,38.372093 C112.799255,38.372093 111.627907,37.200745 111.627907,35.755814 C111.627907,34.3108829 112.799255,33.1395349 114.244186,33.1395349 Z M35.755814,33.1395349 C37.200745,33.1395349 38.372093,34.3108829 38.372093,35.755814 C38.372093,37.200745 37.200745,38.372093 35.755814,38.372093 C34.3108829,38.372093 33.1395349,37.200745 33.1395349,35.755814 C33.1395349,34.3108829 34.3108829,33.1395349 35.755814,33.1395349 Z M147.383721,33.1395349 C148.828652,33.1395349 150,34.3108829 150,35.755814 C150,37.200745 148.828652,38.372093 147.383721,38.372093 C145.93879,38.372093 144.767442,37.200745 144.767442,35.755814 C144.767442,34.3108829 145.93879,33.1395349 147.383721,33.1395349 Z M98.5465116,33.1395349 C99.9914427,33.1395349 101.162791,34.3108829 101.162791,35.755814 C101.162791,37.200745 99.9914427,38.372093 98.5465116,38.372093 C97.1015806,38.372093 95.9302326,37.200745 95.9302326,35.755814 C95.9302326,34.3108829 97.1015806,33.1395349 98.5465116,33.1395349 Z M67.1511628,15.6976744 C68.5960938,15.6976744 69.7674419,16.8690225 69.7674419,18.3139535 C69.7674419,19.7588845 68.5960938,20.9302326 67.1511628,20.9302326 C65.7062318,20.9302326 64.5348837,19.7588845 64.5348837,18.3139535 C64.5348837,16.8690225 65.7062318,15.6976744 67.1511628,15.6976744 Z M98.5465116,15.6976744 C99.9914427,15.6976744 101.162791,16.8690225 101.162791,18.3139535 C101.162791,19.7588845 99.9914427,20.9302326 98.5465116,20.9302326 C97.1015806,20.9302326 95.9302326,19.7588845 95.9302326,18.3139535 C95.9302326,16.8690225 97.1015806,15.6976744 98.5465116,15.6976744 Z M114.244186,15.6976744 C115.689117,15.6976744 116.860465,16.8690225 116.860465,18.3139535 C116.860465,19.7588845 115.689117,20.9302326 114.244186,20.9302326 C112.799255,20.9302326 111.627907,19.7588845 111.627907,18.3139535 C111.627907,16.8690225 112.799255,15.6976744 114.244186,15.6976744 Z M51.4534884,15.6976744 C52.8984194,15.6976744 54.0697674,16.8690225 54.0697674,18.3139535 C54.0697674,19.7588845 52.8984194,20.9302326 51.4534884,20.9302326 C50.0085573,20.9302326 48.8372093,19.7588845 48.8372093,18.3139535 C48.8372093,16.8690225 50.0085573,15.6976744 51.4534884,15.6976744 Z M131.686047,15.6976744 C133.130978,15.6976744 134.302326,16.8690225 134.302326,18.3139535 C134.302326,19.7588845 133.130978,20.9302326 131.686047,20.9302326 C130.241115,20.9302326 129.069767,19.7588845 129.069767,18.3139535 C129.069767,16.8690225 130.241115,15.6976744 131.686047,15.6976744 Z M35.755814,15.6976744 C37.200745,15.6976744 38.372093,16.8690225 38.372093,18.3139535 C38.372093,19.7588845 37.200745,20.9302326 35.755814,20.9302326 C34.3108829,20.9302326 33.1395349,19.7588845 33.1395349,18.3139535 C33.1395349,16.8690225 34.3108829,15.6976744 35.755814,15.6976744 Z M147.383721,15.6976744 C148.828652,15.6976744 150,16.8690225 150,18.3139535 C150,19.7588845 148.828652,20.9302326 147.383721,20.9302326 C145.93879,20.9302326 144.767442,19.7588845 144.767442,18.3139535 C144.767442,16.8690225 145.93879,15.6976744 147.383721,15.6976744 Z M18.3139535,15.6976744 C19.7588845,15.6976744 20.9302326,16.8690225 20.9302326,18.3139535 C20.9302326,19.7588845 19.7588845,20.9302326 18.3139535,20.9302326 C16.8690225,20.9302326 15.6976744,19.7588845 15.6976744,18.3139535 C15.6976744,16.8690225 16.8690225,15.6976744 18.3139535,15.6976744 Z M82.8488372,15.6976744 C84.2937682,15.6976744 85.4651163,16.8690225 85.4651163,18.3139535 C85.4651163,19.7588845 84.2937682,20.9302326 82.8488372,20.9302326 C81.4039062,20.9302326 80.2325581,19.7588845 80.2325581,18.3139535 C80.2325581,16.8690225 81.4039062,15.6976744 82.8488372,15.6976744 Z M2.61627907,15.6976744 C4.0612101,15.6976744 5.23255814,16.8690225 5.23255814,18.3139535 C5.23255814,19.7588845 4.0612101,20.9302326 2.61627907,20.9302326 C1.17134804,20.9302326 0,19.7588845 0,18.3139535 C0,16.8690225 1.17134804,15.6976744 2.61627907,15.6976744 Z M2.61627907,0 C4.0612101,0 5.23255814,1.17134804 5.23255814,2.61627907 C5.23255814,4.0612101 4.0612101,5.23255814 2.61627907,5.23255814 C1.17134804,5.23255814 0,4.0612101 0,2.61627907 C0,1.17134804 1.17134804,0 2.61627907,0 Z M18.3139535,0 C19.7588845,0 20.9302326,1.17134804 20.9302326,2.61627907 C20.9302326,4.0612101 19.7588845,5.23255814 18.3139535,5.23255814 C16.8690225,5.23255814 15.6976744,4.0612101 15.6976744,2.61627907 C15.6976744,1.17134804 16.8690225,0 18.3139535,0 Z M35.755814,0 C37.200745,0 38.372093,1.17134804 38.372093,2.61627907 C38.372093,4.0612101 37.200745,5.23255814 35.755814,5.23255814 C34.3108829,5.23255814 33.1395349,4.0612101 33.1395349,2.61627907 C33.1395349,1.17134804 34.3108829,0 35.755814,0 Z M51.4534884,0 C52.8984194,0 54.0697674,1.17134804 54.0697674,2.61627907 C54.0697674,4.0612101 52.8984194,5.23255814 51.4534884,5.23255814 C50.0085573,5.23255814 48.8372093,4.0612101 48.8372093,2.61627907 C48.8372093,1.17134804 50.0085573,0 51.4534884,0 Z M67.1511628,0 C68.5960938,0 69.7674419,1.17134804 69.7674419,2.61627907 C69.7674419,4.0612101 68.5960938,5.23255814 67.1511628,5.23255814 C65.7062318,5.23255814 64.5348837,4.0612101 64.5348837,2.61627907 C64.5348837,1.17134804 65.7062318,0 67.1511628,0 Z M82.8488372,0 C84.2937682,0 85.4651163,1.17134804 85.4651163,2.61627907 C85.4651163,4.0612101 84.2937682,5.23255814 82.8488372,5.23255814 C81.4039062,5.23255814 80.2325581,4.0612101 80.2325581,2.61627907 C80.2325581,1.17134804 81.4039062,0 82.8488372,0 Z M98.5465116,0 C99.9914427,0 101.162791,1.17134804 101.162791,2.61627907 C101.162791,4.0612101 99.9914427,5.23255814 98.5465116,5.23255814 C97.1015806,5.23255814 95.9302326,4.0612101 95.9302326,2.61627907 C95.9302326,1.17134804 97.1015806,0 98.5465116,0 Z M114.244186,0 C115.689117,0 116.860465,1.17134804 116.860465,2.61627907 C116.860465,4.0612101 115.689117,5.23255814 114.244186,5.23255814 C112.799255,5.23255814 111.627907,4.0612101 111.627907,2.61627907 C111.627907,1.17134804 112.799255,0 114.244186,0 Z M131.686047,0 C133.130978,0 134.302326,1.17134804 134.302326,2.61627907 C134.302326,4.0612101 133.130978,5.23255814 131.686047,5.23255814 C130.241115,5.23255814 129.069767,4.0612101 129.069767,2.61627907 C129.069767,1.17134804 130.241115,0 131.686047,0 Z M147.383721,0 C148.828652,0 150,1.17134804 150,2.61627907 C150,4.0612101 148.828652,5.23255814 147.383721,5.23255814 C145.93879,5.23255814 144.767442,4.0612101 144.767442,2.61627907 C144.767442,1.17134804 145.93879,0 147.383721,0 Z" id="BG_Element" fill="#999999"></path>
    </g>
</svg>