<?xml version="1.0" encoding="UTF-8"?>
<svg width="73px" height="158px" viewBox="0 0 73 158" version="1.1" xmlns="http://www.w3.org/2000/svg" xmlns:xlink="http://www.w3.org/1999/xlink">
    <!-- Generator: Sketch 58 (84663) - https://sketch.com -->
    <title>BG_Element</title>
    <desc>Created with Sketch.</desc>
    <g id="Page-1" stroke="none" stroke-width="1" fill="none" fill-rule="evenodd">
        <g id="Home" transform="translate(-109.000000, -2382.000000)" fill="#999999">
            <g id="4_Products" transform="translate(0.000000, 2002.000000)">
                <g id="P1_Fulfillment-Centers" transform="translate(109.000000, 380.000000)">
                    <path d="M19.5,153 C20.8807119,153 22,154.119288 22,155.5 C22,156.880712 20.8807119,158 19.5,158 C18.1192881,158 17,156.880712 17,155.5 C17,154.119288 18.1192881,153 19.5,153 Z M2.5,153 C3.88071187,153 5,154.119288 5,155.5 C5,156.880712 3.88071187,158 2.5,158 C1.11928813,158 0,156.880712 0,155.5 C0,154.119288 1.11928813,153 2.5,153 Z M36.5,153 C37.8807119,153 39,154.119288 39,155.5 C39,156.880712 37.8807119,158 36.5,158 C35.1192881,158 34,156.880712 34,155.5 C34,154.119288 35.1192881,153 36.5,153 Z M53.5,153 C54.8807119,153 56,154.119288 56,155.5 C56,156.880712 54.8807119,158 53.5,158 C52.1192881,158 51,156.880712 51,155.5 C51,154.119288 52.1192881,153 53.5,153 Z M70.5,153 C71.8807119,153 73,154.119288 73,155.5 C73,156.880712 71.8807119,158 70.5,158 C69.1192881,158 68,156.880712 68,155.5 C68,154.119288 69.1192881,153 70.5,153 Z M19.5,136 C20.8807119,136 22,137.119288 22,138.5 C22,139.880712 20.8807119,141 19.5,141 C18.1192881,141 17,139.880712 17,138.5 C17,137.119288 18.1192881,136 19.5,136 Z M2.5,136 C3.88071187,136 5,137.119288 5,138.5 C5,139.880712 3.88071187,141 2.5,141 C1.11928813,141 0,139.880712 0,138.5 C0,137.119288 1.11928813,136 2.5,136 Z M36.5,136 C37.8807119,136 39,137.119288 39,138.5 C39,139.880712 37.8807119,141 36.5,141 C35.1192881,141 34,139.880712 34,138.5 C34,137.119288 35.1192881,136 36.5,136 Z M53.5,136 C54.8807119,136 56,137.119288 56,138.5 C56,139.880712 54.8807119,141 53.5,141 C52.1192881,141 51,139.880712 51,138.5 C51,137.119288 52.1192881,136 53.5,136 Z M70.5,136 C71.8807119,136 73,137.119288 73,138.5 C73,139.880712 71.8807119,141 70.5,141 C69.1192881,141 68,139.880712 68,138.5 C68,137.119288 69.1192881,136 70.5,136 Z M19.5,119 C20.8807119,119 22,120.119288 22,121.5 C22,122.880712 20.8807119,124 19.5,124 C18.1192881,124 17,122.880712 17,121.5 C17,120.119288 18.1192881,119 19.5,119 Z M2.5,119 C3.88071187,119 5,120.119288 5,121.5 C5,122.880712 3.88071187,124 2.5,124 C1.11928813,124 0,122.880712 0,121.5 C0,120.119288 1.11928813,119 2.5,119 Z M36.5,119 C37.8807119,119 39,120.119288 39,121.5 C39,122.880712 37.8807119,124 36.5,124 C35.1192881,124 34,122.880712 34,121.5 C34,120.119288 35.1192881,119 36.5,119 Z M53.5,119 C54.8807119,119 56,120.119288 56,121.5 C56,122.880712 54.8807119,124 53.5,124 C52.1192881,124 51,122.880712 51,121.5 C51,120.119288 52.1192881,119 53.5,119 Z M70.5,119 C71.8807119,119 73,120.119288 73,121.5 C73,122.880712 71.8807119,124 70.5,124 C69.1192881,124 68,122.880712 68,121.5 C68,120.119288 69.1192881,119 70.5,119 Z M2.5,102 C3.88071187,102 5,103.119288 5,104.5 C5,105.880712 3.88071187,107 2.5,107 C1.11928813,107 0,105.880712 0,104.5 C0,103.119288 1.11928813,102 2.5,102 Z M36.5,102 C37.8807119,102 39,103.119288 39,104.5 C39,105.880712 37.8807119,107 36.5,107 C35.1192881,107 34,105.880712 34,104.5 C34,103.119288 35.1192881,102 36.5,102 Z M53.5,102 C54.8807119,102 56,103.119288 56,104.5 C56,105.880712 54.8807119,107 53.5,107 C52.1192881,107 51,105.880712 51,104.5 C51,103.119288 52.1192881,102 53.5,102 Z M70.5,102 C71.8807119,102 73,103.119288 73,104.5 C73,105.880712 71.8807119,107 70.5,107 C69.1192881,107 68,105.880712 68,104.5 C68,103.119288 69.1192881,102 70.5,102 Z M19.5,102 C20.8807119,102 22,103.119288 22,104.5 C22,105.880712 20.8807119,107 19.5,107 C18.1192881,107 17,105.880712 17,104.5 C17,103.119288 18.1192881,102 19.5,102 Z M70.5,85 C71.8807119,85 73,86.1192881 73,87.5 C73,88.8807119 71.8807119,90 70.5,90 C69.1192881,90 68,88.8807119 68,87.5 C68,86.1192881 69.1192881,85 70.5,85 Z M19.5,85 C20.8807119,85 22,86.1192881 22,87.5 C22,88.8807119 20.8807119,90 19.5,90 C18.1192881,90 17,88.8807119 17,87.5 C17,86.1192881 18.1192881,85 19.5,85 Z M2.5,85 C3.88071187,85 5,86.1192881 5,87.5 C5,88.8807119 3.88071187,90 2.5,90 C1.11928813,90 0,88.8807119 0,87.5 C0,86.1192881 1.11928813,85 2.5,85 Z M36.5,85 C37.8807119,85 39,86.1192881 39,87.5 C39,88.8807119 37.8807119,90 36.5,90 C35.1192881,90 34,88.8807119 34,87.5 C34,86.1192881 35.1192881,85 36.5,85 Z M53.5,85 C54.8807119,85 56,86.1192881 56,87.5 C56,88.8807119 54.8807119,90 53.5,90 C52.1192881,90 51,88.8807119 51,87.5 C51,86.1192881 52.1192881,85 53.5,85 Z M19.5,68 C20.8807119,68 22,69.1192881 22,70.5 C22,71.8807119 20.8807119,73 19.5,73 C18.1192881,73 17,71.8807119 17,70.5 C17,69.1192881 18.1192881,68 19.5,68 Z M53.5,68 C54.8807119,68 56,69.1192881 56,70.5 C56,71.8807119 54.8807119,73 53.5,73 C52.1192881,73 51,71.8807119 51,70.5 C51,69.1192881 52.1192881,68 53.5,68 Z M2.5,68 C3.88071187,68 5,69.1192881 5,70.5 C5,71.8807119 3.88071187,73 2.5,73 C1.11928813,73 0,71.8807119 0,70.5 C0,69.1192881 1.11928813,68 2.5,68 Z M36.5,68 C37.8807119,68 39,69.1192881 39,70.5 C39,71.8807119 37.8807119,73 36.5,73 C35.1192881,73 34,71.8807119 34,70.5 C34,69.1192881 35.1192881,68 36.5,68 Z M70.5,68 C71.8807119,68 73,69.1192881 73,70.5 C73,71.8807119 71.8807119,73 70.5,73 C69.1192881,73 68,71.8807119 68,70.5 C68,69.1192881 69.1192881,68 70.5,68 Z M70.5,51 C71.8807119,51 73,52.1192881 73,53.5 C73,54.8807119 71.8807119,56 70.5,56 C69.1192881,56 68,54.8807119 68,53.5 C68,52.1192881 69.1192881,51 70.5,51 Z M36.5,51 C37.8807119,51 39,52.1192881 39,53.5 C39,54.8807119 37.8807119,56 36.5,56 C35.1192881,56 34,54.8807119 34,53.5 C34,52.1192881 35.1192881,51 36.5,51 Z M19.5,51 C20.8807119,51 22,52.1192881 22,53.5 C22,54.8807119 20.8807119,56 19.5,56 C18.1192881,56 17,54.8807119 17,53.5 C17,52.1192881 18.1192881,51 19.5,51 Z M2.5,51 C3.88071187,51 5,52.1192881 5,53.5 C5,54.8807119 3.88071187,56 2.5,56 C1.11928813,56 0,54.8807119 0,53.5 C0,52.1192881 1.11928813,51 2.5,51 Z M53.5,51 C54.8807119,51 56,52.1192881 56,53.5 C56,54.8807119 54.8807119,56 53.5,56 C52.1192881,56 51,54.8807119 51,53.5 C51,52.1192881 52.1192881,51 53.5,51 Z M53.5,34 C54.8807119,34 56,35.1192881 56,36.5 C56,37.8807119 54.8807119,39 53.5,39 C52.1192881,39 51,37.8807119 51,36.5 C51,35.1192881 52.1192881,34 53.5,34 Z M70.5,34 C71.8807119,34 73,35.1192881 73,36.5 C73,37.8807119 71.8807119,39 70.5,39 C69.1192881,39 68,37.8807119 68,36.5 C68,35.1192881 69.1192881,34 70.5,34 Z M2.5,34 C3.88071187,34 5,35.1192881 5,36.5 C5,37.8807119 3.88071187,39 2.5,39 C1.11928813,39 0,37.8807119 0,36.5 C0,35.1192881 1.11928813,34 2.5,34 Z M19.5,34 C20.8807119,34 22,35.1192881 22,36.5 C22,37.8807119 20.8807119,39 19.5,39 C18.1192881,39 17,37.8807119 17,36.5 C17,35.1192881 18.1192881,34 19.5,34 Z M36.5,34 C37.8807119,34 39,35.1192881 39,36.5 C39,37.8807119 37.8807119,39 36.5,39 C35.1192881,39 34,37.8807119 34,36.5 C34,35.1192881 35.1192881,34 36.5,34 Z M19.5,17 C20.8807119,17 22,18.1192881 22,19.5 C22,20.8807119 20.8807119,22 19.5,22 C18.1192881,22 17,20.8807119 17,19.5 C17,18.1192881 18.1192881,17 19.5,17 Z M36.5,17 C37.8807119,17 39,18.1192881 39,19.5 C39,20.8807119 37.8807119,22 36.5,22 C35.1192881,22 34,20.8807119 34,19.5 C34,18.1192881 35.1192881,17 36.5,17 Z M53.5,17 C54.8807119,17 56,18.1192881 56,19.5 C56,20.8807119 54.8807119,22 53.5,22 C52.1192881,22 51,20.8807119 51,19.5 C51,18.1192881 52.1192881,17 53.5,17 Z M70.5,17 C71.8807119,17 73,18.1192881 73,19.5 C73,20.8807119 71.8807119,22 70.5,22 C69.1192881,22 68,20.8807119 68,19.5 C68,18.1192881 69.1192881,17 70.5,17 Z M2.5,17 C3.88071187,17 5,18.1192881 5,19.5 C5,20.8807119 3.88071187,22 2.5,22 C1.11928813,22 0,20.8807119 0,19.5 C0,18.1192881 1.11928813,17 2.5,17 Z M19.5,0 C20.8807119,0 22,1.11928813 22,2.5 C22,3.88071187 20.8807119,5 19.5,5 C18.1192881,5 17,3.88071187 17,2.5 C17,1.11928813 18.1192881,0 19.5,0 Z M36.5,0 C37.8807119,0 39,1.11928813 39,2.5 C39,3.88071187 37.8807119,5 36.5,5 C35.1192881,5 34,3.88071187 34,2.5 C34,1.11928813 35.1192881,0 36.5,0 Z M53.5,0 C54.8807119,0 56,1.11928813 56,2.5 C56,3.88071187 54.8807119,5 53.5,5 C52.1192881,5 51,3.88071187 51,2.5 C51,1.11928813 52.1192881,0 53.5,0 Z M70.5,0 C71.8807119,0 73,1.11928813 73,2.5 C73,3.88071187 71.8807119,5 70.5,5 C69.1192881,5 68,3.88071187 68,2.5 C68,1.11928813 69.1192881,0 70.5,0 Z M2.5,0 C3.88071187,0 5,1.11928813 5,2.5 C5,3.88071187 3.88071187,5 2.5,5 C1.11928813,5 0,3.88071187 0,2.5 C0,1.11928813 1.11928813,0 2.5,0 Z" id="BG_Element"></path>
                </g>
            </g>
        </g>
    </g>
</svg>