<svg width="582" height="165" viewBox="0 0 582 165" fill="none" xmlns="http://www.w3.org/2000/svg">
<path d="M150.636 118.622C151.338 119.501 152.403 120.012 153.528 120.012H166.511C169.603 120.012 171.333 116.448 169.421 114.018L152.388 92.3771C151.24 90.9199 151.348 88.8392 152.639 87.508L166.197 73.5285C168.475 71.1794 166.81 67.2462 163.538 67.2462H151.89C150.925 67.2462 149.998 67.6234 149.306 68.2971L137.786 79.5202C135.439 81.8065 131.498 80.1436 131.498 76.8672V51.4791C131.498 49.4336 129.84 47.7754 127.794 47.7754H116.704C114.659 47.7754 113 49.4336 113 51.4791V116.309C113 118.354 114.659 120.012 116.704 120.012H127.794C129.84 120.012 131.498 118.354 131.498 116.309V108.579C131.498 107.608 131.879 106.676 132.56 105.984L134.024 104.493C135.58 102.909 138.171 103.041 139.558 104.775L150.636 118.622Z" fill="#7735B4"/>
<path d="M183.932 61.4048C190.747 61.4048 195.225 57.1213 195.225 51.28C195.225 45.7308 190.747 41.7393 183.932 41.7393C177.117 41.7393 172.639 46.0229 172.639 51.5721C172.639 57.1213 177.117 61.4048 183.932 61.4048ZM174.684 116.309C174.684 118.354 176.342 120.012 178.387 120.012H189.477C191.523 120.012 193.181 118.354 193.181 116.309V70.9498C193.181 68.9043 191.523 67.2461 189.477 67.2461H178.387C176.342 67.2461 174.684 68.9043 174.684 70.9498V116.309Z" fill="#7735B4"/>
<path d="M221.344 70.3541C220.084 71.2589 217.955 70.4357 217.955 68.8848C217.955 67.9799 217.222 67.2463 216.317 67.2463H204.038C201.992 67.2463 200.334 68.9046 200.334 70.95V116.309C200.334 118.354 201.992 120.012 204.038 120.012H215.128C217.173 120.012 218.832 118.354 218.832 116.309V95.7712C218.832 86.5226 223.991 82.7257 231.488 82.7257C233.705 82.7257 235.674 81.0699 235.674 78.8528V70.0738C235.674 68.0284 234.009 66.3424 231.976 66.5664C227.797 67.0268 224.209 68.2956 221.344 70.3541Z" fill="#7735B4"/>
<path d="M247.688 61.4048C254.502 61.4048 258.981 57.1213 258.981 51.28C258.981 45.7308 254.502 41.7393 247.688 41.7393C240.873 41.7393 236.395 46.0229 236.395 51.5721C236.395 57.1213 240.873 61.4048 247.688 61.4048ZM238.439 116.309C238.439 118.354 240.097 120.012 242.143 120.012H253.233C255.279 120.012 256.937 118.354 256.937 116.309V70.9498C256.937 68.9043 255.279 67.2461 253.233 67.2461H242.143C240.097 67.2461 238.439 68.9043 238.439 70.9498V116.309Z" fill="#7735B4"/>
<path d="M332.822 66.3701C327.169 66.3701 322.109 68.0431 318.164 71.0674C316.163 72.6025 313.072 72.4454 311.138 70.8244C307.536 67.8027 302.801 66.3701 297.483 66.3701C292.685 66.3701 288.293 67.6397 284.704 70.1789C283.541 71.0009 281.711 70.2373 281.711 68.8139C281.711 67.9481 281.01 67.2463 280.143 67.2463H267.794C265.748 67.2463 264.09 68.9046 264.09 70.95V116.309C264.09 118.354 265.748 120.012 267.794 120.012H278.884C280.93 120.012 282.588 118.354 282.588 116.309V93.8241C282.588 85.6463 286.481 82.0442 291.933 82.0442C296.899 82.0442 299.916 85.2569 299.916 92.8506V116.309C299.916 118.354 301.574 120.012 303.62 120.012H314.71C316.756 120.012 318.414 118.354 318.414 116.309V93.8241C318.414 85.6463 322.307 82.0442 327.663 82.0442C332.53 82.0442 335.646 85.2569 335.646 92.8506V116.309C335.646 118.354 337.304 120.012 339.349 120.012H350.439C352.485 120.012 354.143 118.354 354.143 116.309V89.8326C354.143 73.477 345.089 66.3701 332.822 66.3701Z" fill="#7735B4"/>
<path d="M370.199 61.4048C377.014 61.4048 381.491 57.1213 381.491 51.28C381.491 45.7308 377.014 41.7393 370.199 41.7393C363.384 41.7393 358.906 46.0229 358.906 51.5721C358.906 57.1213 363.384 61.4048 370.199 61.4048ZM360.951 116.309C360.951 118.354 362.609 120.012 364.654 120.012H375.743C377.789 120.012 379.447 118.354 379.447 116.309V70.9498C379.447 68.9043 377.789 67.2461 375.743 67.2461H364.654C362.609 67.2461 360.951 68.9043 360.951 70.9498V116.309Z" fill="#7735B4"/>
<path d="M420.967 66.3701C415.852 66.3701 411.145 67.7068 407.337 70.3352C406.117 71.1774 404.222 70.373 404.222 68.8902C404.222 67.9823 403.486 67.2463 402.578 67.2463H390.305C388.259 67.2463 386.601 68.9046 386.601 70.95V116.309C386.601 118.354 388.259 120.012 390.305 120.012H401.394C403.44 120.012 405.098 118.354 405.098 116.309V94.5057C405.098 85.7437 409.674 82.0442 415.612 82.0442C420.967 82.0442 424.277 85.2569 424.277 92.8506V116.309C424.277 118.354 425.935 120.012 427.98 120.012H439.07C441.116 120.012 442.774 118.354 442.774 116.309V89.8326C442.774 73.477 433.331 66.3701 420.967 66.3701Z" fill="#7735B4"/>
<path d="M472.009 66.3701C464.947 66.3701 457.388 67.9301 451.572 70.8685C449.904 71.7112 449.364 73.7602 450.195 75.4343L452.949 80.9868C453.993 83.0897 456.736 83.7117 458.875 82.7464C462.052 81.3135 465.805 80.4865 469.283 80.4865C474.641 80.4865 478.006 82.1116 479.535 85.0922C480.504 86.9831 478.693 88.859 476.568 88.859H469.964C453.609 88.859 446.502 94.8951 446.502 104.63C446.502 113.782 453.511 120.889 466.168 120.889C471.325 120.889 475.388 119.707 478.297 117.402C479.395 116.532 481.744 117.275 481.744 118.675C481.744 119.414 482.343 120.012 483.081 120.012H495.273C497.317 120.012 498.977 118.354 498.977 116.309V90.7088C498.977 73.9638 489.143 66.3701 472.009 66.3701ZM471.327 109.206C466.947 109.206 464.415 106.967 464.415 103.852C464.415 100.639 466.557 98.4972 472.495 98.4972H476.775C478.821 98.4972 480.479 100.155 480.479 102.201V102.445C480.479 102.861 480.415 103.276 480.254 103.66C478.672 107.441 475.22 109.206 471.327 109.206Z" fill="#7735B4"/>
<path d="M515.811 61.4048C522.626 61.4048 527.105 57.1213 527.105 51.28C527.105 45.7308 522.626 41.7393 515.811 41.7393C508.996 41.7393 504.519 46.0229 504.519 51.5721C504.519 57.1213 508.996 61.4048 515.811 61.4048ZM503.544 139.775C517.174 139.775 525.061 131.5 525.061 118.649V70.9498C525.061 68.9043 523.403 67.2461 521.357 67.2461H510.267C508.221 67.2461 506.563 68.9043 506.563 70.9498V118.552C506.563 123.322 504.323 125.464 501.111 125.464C500.633 125.464 500.161 125.435 499.696 125.379C497.347 125.095 494.616 126.019 493.824 128.249L491.728 134.14C491.13 135.825 491.819 137.723 493.51 138.303C496.41 139.298 499.951 139.775 503.544 139.775Z" fill="#7735B4"/>
<path d="M554.589 66.3701C547.527 66.3701 539.968 67.9301 534.152 70.8685C532.484 71.7112 531.944 73.7602 532.775 75.4343L535.53 80.9868C536.573 83.0897 539.315 83.7117 541.456 82.7464C544.632 81.3135 548.385 80.4865 551.863 80.4865C557.221 80.4865 560.586 82.1116 562.115 85.0922C563.084 86.9831 561.273 88.859 559.148 88.859H552.544C536.189 88.859 529.081 94.8951 529.081 104.63C529.081 113.782 536.091 120.889 548.748 120.889C553.905 120.889 557.968 119.707 560.878 117.402C561.975 116.532 564.325 117.275 564.325 118.675C564.325 119.414 564.923 120.012 565.662 120.012H577.852C579.897 120.012 581.556 118.354 581.556 116.309V90.7088C581.556 73.9638 571.723 66.3701 554.589 66.3701ZM553.907 109.206C549.526 109.206 546.995 106.967 546.995 103.852C546.995 100.639 549.137 98.4972 555.075 98.4972H559.356C561.4 98.4972 563.059 100.155 563.059 102.201V102.445C563.059 102.861 562.995 103.276 562.835 103.66C561.252 107.441 557.8 109.206 553.907 109.206Z" fill="#7735B4"/>
<path d="M51.3351 77.9083C42.5119 69.1028 28.2066 69.1028 19.3833 77.9083C10.5601 86.7138 10.5601 100.99 19.3833 109.796L67.2891 157.605C76.1124 166.411 90.4177 166.411 99.2409 157.605C108.064 148.8 108.064 134.523 99.2409 125.718L51.3351 77.9083Z" fill="url(#paint0_linear)"/>
<path fill-rule="evenodd" clip-rule="evenodd" d="M30.6352 18.1001C27.2754 18.9986 26.15 23.19 28.6097 25.6448L37.2126 34.2306L6.61738 64.7643C0.206094 71.1627 -1.54652 80.4498 1.35969 88.4277C2.43558 91.6347 4.25367 94.6489 6.8135 97.2035L54.1197 144.415V81.1327L69.1646 66.1181L77.7259 74.6622C80.1854 77.1167 84.3855 75.9936 85.2856 72.6405L103.263 5.68158C104.164 2.32825 101.089 -0.740068 97.7293 0.158467L30.6352 18.1001Z" fill="#9B51E0"/>
<path fill-rule="evenodd" clip-rule="evenodd" d="M30.6352 18.1001C27.2754 18.9986 26.15 23.19 28.6097 25.6448L37.2126 34.2306L6.61738 64.7643C0.206094 71.1627 -1.54652 80.4498 1.35969 88.4277C2.43558 91.6347 4.25367 94.6489 6.8135 97.2035L54.1197 144.415V81.1327L69.1646 66.1181L77.7259 74.6622C80.1854 77.1167 84.3855 75.9936 85.2856 72.6405L103.263 5.68158C104.164 2.32825 101.089 -0.740068 97.7293 0.158467L30.6352 18.1001Z" fill="url(#paint1_linear)"/>
<defs>
<linearGradient id="paint0_linear" x1="32.7589" y1="157.605" x2="99.2414" y2="157.606" gradientUnits="userSpaceOnUse">
<stop offset="0.328125" stop-color="#003E95"/>
<stop offset="1" stop-color="#3681EC"/>
</linearGradient>
<linearGradient id="paint1_linear" x1="63.5" y1="60.5" x2="-40.5" y2="164.5" gradientUnits="userSpaceOnUse">
<stop stop-color="#9B51E0"/>
<stop offset="1" stop-color="#3E0870"/>
</linearGradient>
</defs>
</svg>
